<svg width="936" height="588" fill="none" xmlns="http://www.w3.org/2000/svg"><g filter="url(#a)"><g clip-path="url(#b)"><rect width="928" height="580" rx="8" fill="#fff"/><g clip-path="url(#c)"><path d="M0 0h154.667v580H0V0Z" fill="#000"/><g clip-path="url(#d)"><path d="M23.914 37.68a7.312 7.312 0 0 0 5.219-6.986l-.04-9.795a1.6 1.6 0 0 0-2.086-1.493l-11.71 3.603a1.58 1.58 0 0 0-1.118 1.503v6.231c.043 4.919 4.932 8.417 9.735 6.936Z" fill="#8979E8"/><path d="m40.124 32.085-.112.112a3.111 3.111 0 0 1-.33.257 3.885 3.885 0 0 1-.534.33c-.23.11-.47.197-.718.257a3.608 3.608 0 0 1-.884.112 3.297 3.297 0 0 1-2.502-1.012 3.788 3.788 0 0 1-.956-2.716V24.46h1.777v4.965a2.115 2.115 0 0 0 .583 1.526 1.935 1.935 0 0 0 1.454.607 2.094 2.094 0 0 0 1.615-.66c.429-.512.645-1.17.604-1.836v-4.615h1.777v8.518h-1.774v-.88ZM46.035 32.969l-3.468-8.519h1.866l2.486 6.214 2.489-6.214h1.862l-3.468 8.519h-1.767ZM52.622 25.594a4.263 4.263 0 0 1 3.115-1.319 4.265 4.265 0 0 1 3.119 1.319 4.285 4.285 0 0 1 1.319 3.115 4.26 4.26 0 0 1-1.32 3.112 4.286 4.286 0 0 1-3.118 1.319 4.285 4.285 0 0 1-3.115-1.319 4.257 4.257 0 0 1-1.319-3.112 4.286 4.286 0 0 1 1.319-3.115Zm4.988 1.101a2.496 2.496 0 0 0-1.873-.824 2.514 2.514 0 0 0-1.876.824 2.79 2.79 0 0 0-.79 2.014 2.793 2.793 0 0 0 .79 2.015 2.515 2.515 0 0 0 1.876.824 2.494 2.494 0 0 0 1.873-.824 2.79 2.79 0 0 0 .79-2.015 2.792 2.792 0 0 0-.803-2.014h.013ZM65.838 24.384c.268.066.527.162.772.287.197.098.387.208.57.33.124.084.242.178.353.28l.122.132v-4.89h1.777v12.429h-1.777v-.989c-.08.082-.195.188-.33.33a3.81 3.81 0 0 1-.94.517c-.459.212-.958.324-1.463.33a3.925 3.925 0 0 1-2.93-1.296 4.39 4.39 0 0 1-1.24-3.141 4.383 4.383 0 0 1 1.24-3.142 3.927 3.927 0 0 1 2.93-1.296c.31.001.617.04.916.119Zm1.039 6.333a2.842 2.842 0 0 0 .778-2.008 2.849 2.849 0 0 0-.778-2.008 2.4 2.4 0 0 0-1.79-.83 2.416 2.416 0 0 0-1.797.83 2.839 2.839 0 0 0-.785 2.008 2.832 2.832 0 0 0 .785 2.008 2.418 2.418 0 0 0 1.797.83 2.396 2.396 0 0 0 1.787-.83h.003ZM72.03 25.594a4.25 4.25 0 0 1 3.115-1.319 4.254 4.254 0 0 1 3.115 1.319 4.259 4.259 0 0 1 1.319 3.115 4.25 4.25 0 0 1-1.319 3.112 4.264 4.264 0 0 1-3.115 1.319 4.26 4.26 0 0 1-3.115-1.319 4.26 4.26 0 0 1-1.32-3.112 4.285 4.285 0 0 1 1.32-3.115Zm4.987 1.1a2.499 2.499 0 0 0-1.872-.823 2.511 2.511 0 0 0-1.876.824 2.796 2.796 0 0 0-.794 2.014 2.794 2.794 0 0 0 .794 2.015 2.513 2.513 0 0 0 1.876.824 2.498 2.498 0 0 0 1.872-.824 2.793 2.793 0 0 0 .788-2.015 2.792 2.792 0 0 0-.788-2.014Z" fill="#fff"/></g><path d="M38.162 228.051h8.533v3.866h-8.533v-3.866Z" fill="#fff"/><path d="M45.538 228.051h8.532v3.866h-8.532v-3.866Z" fill="#fff"/><path d="M52.914 228.051h8.532v3.866h-8.532v-3.866Z" fill="#fff"/><path d="M60.29 228.051h4.846v3.866H60.29v-3.866Z" fill="#fff"/><path d="M63.978 228.051h8.532v3.866h-8.532v-3.866Z" fill="#fff"/><path d="M71.353 228.051h8.533v3.866h-8.532v-3.866Z" fill="#fff"/><path opacity=".2" d="M20.493 228.454h10.659v1.45a.967.967 0 0 1-.97.967H27.35a.478.478 0 0 0-.365.166.485.485 0 0 0-.114.384l.406 2.833a1.45 1.45 0 0 1-1.454 1.45 1.45 1.45 0 0 1-1.453-1.45l.406-2.833a.48.48 0 0 0-.279-.506.478.478 0 0 0-.2-.044h-2.834a.971.971 0 0 1-.97-.967v-1.45Z" fill="#FAFAFA"/><path d="M20.493 228.454h10.659M24.296 230.871h-2.834a.971.971 0 0 1-.97-.967v-4.35a1.931 1.931 0 0 1 1.939-1.933h8.72v6.283a.967.967 0 0 1-.968.967h-2.834a.478.478 0 0 0-.365.166.485.485 0 0 0-.114.384l.406 2.833a1.455 1.455 0 0 1-2.907 0l.406-2.833a.48.48 0 0 0-.279-.506.478.478 0 0 0-.2-.044v0ZM29.214 223.621v2.9" stroke="#FAFAFA" stroke-width=".8" stroke-linecap="round" stroke-linejoin="round"/><path d="M38.162 258.984h8.533v3.867h-8.533v-3.867Z" fill="#fff"/><path d="M45.538 258.984h8.532v3.867h-8.532v-3.867Z" fill="#fff"/><path d="M52.914 258.984h4.846v3.867h-4.846v-3.867Z" fill="#fff"/><path d="M56.602 258.984h4.846v3.867h-4.846v-3.867Z" fill="#fff"/><path d="M60.29 258.984h4.846v3.867H60.29v-3.867Z" fill="#fff"/><path d="M63.978 258.984h8.532v3.867h-8.532v-3.867Z" fill="#fff"/><path d="M71.353 258.984h8.533v3.867h-8.532v-3.867Z" fill="#fff"/><path d="M78.73 258.984h8.532v3.867h-8.533v-3.867Z" fill="#fff"/><path opacity=".2" d="M30.897 260.663c.019-.206 0-.617 0-.617l1.006-1.335a6.229 6.229 0 0 0-.618-1.486l-1.653-.236a11.109 11.109 0 0 0-.436-.435l-.237-1.649a6.144 6.144 0 0 0-1.49-.616l-1.338 1.002a3.54 3.54 0 0 0-.618 0l-1.338-1.002a6.233 6.233 0 0 0-1.49.616l-.236 1.649c-.15.141-.295.286-.436.435l-1.653.236c-.27.466-.478.966-.618 1.486l1.005 1.335c-.012.206 0 .617 0 .617l-1.005 1.335c.14.52.348 1.019.618 1.486l1.653.236c.141.153.287.298.436.435l.236 1.649c.468.269.969.477 1.49.616l1.338-1.003c.206.018.413.018.618 0l1.339 1.003a6.233 6.233 0 0 0 1.49-.616l.236-1.649c.151-.139.436-.435.436-.435l1.653-.236c.27-.466.478-.966.618-1.486l-1.006-1.335Zm-5.075 2.591a2.904 2.904 0 0 1-2.851-3.465 2.907 2.907 0 0 1 3.963-2.114 2.896 2.896 0 0 1 .943 4.73 2.91 2.91 0 0 1-2.055.849Z" fill="#FAFAFA"/><path d="M25.822 263.254a2.903 2.903 0 0 0 2.907-2.9c0-1.601-1.301-2.9-2.907-2.9a2.904 2.904 0 0 0-2.907 2.9c0 1.602 1.302 2.9 2.907 2.9Z" stroke="#FAFAFA" stroke-width=".8" stroke-linecap="round" stroke-linejoin="round"/><path d="M29.196 256.554c.153.141.298.286.436.435l1.653.236c.27.467.477.966.618 1.486l-1.006 1.335s.019.411 0 .617l1.006 1.335c-.14.52-.348 1.02-.618 1.486l-1.653.236s-.285.296-.436.435l-.237 1.649a6.233 6.233 0 0 1-1.49.616l-1.338-1.003a3.54 3.54 0 0 1-.618 0l-1.338 1.003a6.184 6.184 0 0 1-1.49-.616l-.236-1.649c-.15-.141-.295-.286-.436-.435l-1.653-.236a6.229 6.229 0 0 1-.618-1.486l1.005-1.335s-.012-.411 0-.617l-1.005-1.335c.14-.52.348-1.02.618-1.486l1.653-.236c.141-.149.287-.294.436-.435l.236-1.649a6.233 6.233 0 0 1 1.49-.616l1.338 1.002a3.54 3.54 0 0 1 .618 0l1.339-1.002a6.144 6.144 0 0 1 1.49.616l.236 1.649Z" stroke="#FAFAFA" stroke-width=".8" stroke-linecap="round" stroke-linejoin="round"/><path d="M38.162 104.318h8.533v3.867h-8.533v-3.867Z" fill="#fff"/><path d="M45.538 104.318h4.846v3.867h-4.846v-3.867Z" fill="#fff"/><path d="M49.226 104.318h8.532v3.867h-8.532v-3.867Z" fill="#fff"/><path d="M56.602 104.318h8.532v3.867h-8.532v-3.867Z" fill="#fff"/><path d="M63.978 104.318h8.532v3.867h-8.532v-3.867Z" fill="#fff"/><path d="M71.353 104.318h8.533v3.867h-8.532v-3.867Z" fill="#fff"/><path d="M78.73 104.318h4.846v3.867h-4.847v-3.867Z" fill="#fff"/><path d="M82.417 104.318h8.533v3.867h-8.533v-3.867Z" fill="#fff"/><path opacity=".2" d="M22.673 111.005c1.204 0 2.18-.974 2.18-2.175a2.178 2.178 0 0 0-2.18-2.175c-1.204 0-2.18.974-2.18 2.175 0 1.201.976 2.175 2.18 2.175ZM22.673 104.722c1.204 0 2.18-.974 2.18-2.175a2.177 2.177 0 0 0-2.18-2.175c-1.204 0-2.18.973-2.18 2.175 0 1.201.976 2.175 2.18 2.175ZM28.971 104.722c1.204 0 2.18-.974 2.18-2.175a2.177 2.177 0 0 0-2.18-2.175c-1.204 0-2.18.973-2.18 2.175 0 1.201.976 2.175 2.18 2.175ZM28.971 111.005c1.204 0 2.18-.974 2.18-2.175a2.178 2.178 0 0 0-2.18-2.175c-1.204 0-2.18.974-2.18 2.175 0 1.201.976 2.175 2.18 2.175Z" fill="#FAFAFA"/><path d="M22.673 104.722c1.204 0 2.18-.974 2.18-2.175a2.177 2.177 0 0 0-2.18-2.175c-1.204 0-2.18.973-2.18 2.175 0 1.201.976 2.175 2.18 2.175ZM28.971 104.722c1.204 0 2.18-.974 2.18-2.175a2.177 2.177 0 0 0-2.18-2.175c-1.204 0-2.18.973-2.18 2.175 0 1.201.976 2.175 2.18 2.175ZM28.971 111.005c1.204 0 2.18-.974 2.18-2.175a2.178 2.178 0 0 0-2.18-2.175c-1.204 0-2.18.974-2.18 2.175 0 1.201.976 2.175 2.18 2.175ZM22.673 111.005c1.204 0 2.18-.974 2.18-2.175a2.178 2.178 0 0 0-2.18-2.175c-1.204 0-2.18.974-2.18 2.175 0 1.201.976 2.175 2.18 2.175Z" stroke="#FAFAFA" stroke-width=".8" stroke-linecap="round" stroke-linejoin="round"/><path d="M38.162 135.52h8.533v3.866h-8.533v-3.866Z" fill="#fff"/><path d="M45.538 135.52h4.846v3.866h-4.846v-3.866Z" fill="#fff"/><path d="M49.226 135.52h8.532v3.866h-8.532v-3.866Z" fill="#fff"/><path d="M56.602 135.52h8.532v3.866h-8.532v-3.866Z" fill="#fff"/><path d="M63.978 135.52h4.846v3.866h-4.846v-3.866Z" fill="#fff"/><path d="M67.666 135.52h8.532v3.866h-8.532v-3.866Z" fill="#fff"/><path opacity=".2" d="M27.76 131.573c.315.418.485.927.485 1.45v.483H23.4v-.483c0-.523.17-1.032.484-1.45h-2.422a.484.484 0 0 0-.485.483v10.15a.484.484 0 0 0 .485.484h8.72a.484.484 0 0 0 .485-.484v-10.15a.484.484 0 0 0-.484-.483H27.76Z" fill="#FAFAFA"/><path d="M23.884 138.34h3.876M23.884 136.406h3.876M27.76 131.573h2.423a.484.484 0 0 1 .485.483v10.15a.484.484 0 0 1-.485.484h-8.721a.484.484 0 0 1-.485-.484v-10.15a.484.484 0 0 1 .485-.483h2.422" stroke="#FAFAFA" stroke-width=".8" stroke-linecap="round" stroke-linejoin="round"/><path d="M23.4 133.506v-.483c0-.641.255-1.256.71-1.709a2.426 2.426 0 0 1 3.425 0c.454.453.71 1.068.71 1.709v.483H23.4Z" stroke="#FAFAFA" stroke-width=".8" stroke-linecap="round" stroke-linejoin="round"/><rect x="122" y="129" width="19.856" height="16" rx="8" fill="#EAFA35"/><g clip-path="url(#e)" fill="#060606"><path d="M127.156 135.84h5.119v2.32h-5.119v-2.32Z"/><path d="M131.581 135.84h5.12v2.32h-5.12v-2.32Z"/></g><path d="M7.734 64.443a2.578 2.578 0 0 1 2.578-2.578H144.69a2.578 2.578 0 0 1 2.578 2.578v20.622a2.578 2.578 0 0 1-2.578 2.578H10.312a2.578 2.578 0 0 1-2.578-2.578V64.443Z" fill="#8979E8"/><path d="M38.162 73.385h8.533v3.866h-8.533v-3.866Z" fill="#fff"/><path d="M45.538 73.385h8.532v3.866h-8.532v-3.866Z" fill="#fff"/><path d="M52.914 73.385h8.532v3.866h-8.532v-3.866Z" fill="#fff"/><path d="M60.29 73.385h8.532v3.866H60.29v-3.866Z" fill="#fff"/><path d="M67.666 73.385h8.532v3.866h-8.532v-3.866Z" fill="#fff"/><path d="M75.041 73.385h8.533v3.866h-8.532v-3.866Z" fill="#fff"/><path d="M82.417 73.385h8.533v3.866h-8.533v-3.866Z" fill="#fff"/><path d="M89.793 73.385h4.846v3.866h-4.846v-3.866Z" fill="#fff"/><path d="M93.481 73.385h8.533v3.866h-8.533v-3.866Z" fill="#fff"/><path opacity=".2" d="M27.275 79.588v-2.9a.483.483 0 0 0-.484-.484h-1.938a.485.485 0 0 0-.485.484v2.9a.483.483 0 0 1-.484.483h-2.907a.486.486 0 0 1-.484-.483v-5.586a.482.482 0 0 1 .159-.358l4.844-4.394a.485.485 0 0 1 .652 0l4.845 4.394a.482.482 0 0 1 .159.358v5.586a.481.481 0 0 1-.485.483H27.76a.485.485 0 0 1-.485-.483Z" fill="#F3F2FD"/><path fill-rule="evenodd" clip-rule="evenodd" d="M25.17 68.892a.97.97 0 0 1 1.304 0l4.845 4.395a.966.966 0 0 1 .317.715v5.586a.965.965 0 0 1-.969.967H27.76a.97.97 0 0 1-.97-.967v-2.9h-1.937v2.9a.965.965 0 0 1-.969.966h-2.907a.968.968 0 0 1-.969-.966v-5.586a.965.965 0 0 1 .317-.715l4.845-4.395Zm5.497 5.11-4.845-4.394-4.845 4.394v5.586h2.907v-2.9a.966.966 0 0 1 .969-.967h1.938a.97.97 0 0 1 .969.967v2.9h2.907v-5.586Z" fill="#F3F2FD"/><path d="M38.162 166.186h8.533v3.866h-8.533v-3.866Z" fill="#fff"/><path d="M45.538 166.186h8.532v3.866h-8.532v-3.866Z" fill="#fff"/><path d="M52.914 166.186h8.532v3.866h-8.532v-3.866Z" fill="#fff"/><path d="M60.29 166.186h4.846v3.866H60.29v-3.866Z" fill="#fff"/><path d="M63.978 166.186h8.532v3.866h-8.532v-3.866Z" fill="#fff"/><path d="M71.353 166.186h8.533v3.866h-8.532v-3.866Z" fill="#fff"/><path d="M78.73 166.186h8.532v3.866h-8.533v-3.866Z" fill="#fff"/><path d="M86.105 166.186h4.846v3.866h-4.846v-3.866Z" fill="#fff"/><path d="M89.793 166.186h8.533v3.866h-8.533v-3.866Z" fill="#fff"/><path opacity=".2" d="M25.822 169.489a3.871 3.871 0 0 0 3.876-3.867 3.871 3.871 0 0 0-3.876-3.866 3.871 3.871 0 0 0-3.876 3.866 3.871 3.871 0 0 0 3.876 3.867Z" fill="#FAFAFA"/><path d="M25.822 169.489a3.871 3.871 0 0 0 3.876-3.867 3.871 3.871 0 0 0-3.876-3.866 3.871 3.871 0 0 0-3.876 3.866 3.871 3.871 0 0 0 3.876 3.867Z" stroke="#FAFAFA" stroke-width=".8" stroke-miterlimit="10"/><path d="M19.948 172.872a6.796 6.796 0 0 1 9.266-2.477 6.773 6.773 0 0 1 2.483 2.477" stroke="#FAFAFA" stroke-width=".8" stroke-linecap="round" stroke-linejoin="round"/><path d="M38.09 197.117h8.532v3.867H38.09v-3.867Z" fill="#fff"/><path d="M45.466 197.117h4.846v3.867h-4.846v-3.867Z" fill="#fff"/><path d="M49.154 197.117h8.532v3.867h-8.532v-3.867Z" fill="#fff"/><path d="M56.53 197.117h8.532v3.867H56.53v-3.867Z" fill="#fff"/><path d="M63.905 197.117h4.847v3.867h-4.847v-3.867Z" fill="#fff"/><path d="M67.593 197.117h8.533v3.867h-8.533v-3.867Z" fill="#fff"/><path d="M74.97 197.117h8.532v3.867h-8.533v-3.867Z" fill="#fff"/><path opacity=".2" d="M21.914 203.804a.482.482 0 0 1-.484-.483v-2.58c-.265.126-.559.18-.852.157a1.688 1.688 0 0 1-1.253-.706 1.688 1.688 0 0 1 .082-2.069c.16-.19.36-.343.585-.448a1.704 1.704 0 0 1 1.438.009v-2.58a.485.485 0 0 1 .484-.483h2.821a1.696 1.696 0 0 1 1.227-2.393 1.694 1.694 0 0 1 1.83 2.393h2.822a.481.481 0 0 1 .483.483v2.58a1.658 1.658 0 0 0-.852-.157 1.686 1.686 0 0 0-1.54 1.384 1.69 1.69 0 0 0 1.674 1.994c.248-.001.494-.057.718-.164v2.58a.48.48 0 0 1-.483.483h-8.7Z" fill="#FAFAFA"/><path d="M21.914 203.804a.482.482 0 0 1-.484-.483v-2.58c-.265.126-.559.18-.852.157a1.688 1.688 0 0 1-1.253-.706 1.688 1.688 0 0 1 .082-2.069c.16-.19.36-.343.585-.448a1.704 1.704 0 0 1 1.438.009v-2.58a.485.485 0 0 1 .484-.483h2.821a1.696 1.696 0 0 1 1.227-2.393 1.694 1.694 0 0 1 1.83 2.393h2.822a.481.481 0 0 1 .483.483v2.58a1.658 1.658 0 0 0-.852-.157 1.686 1.686 0 0 0-1.54 1.384 1.69 1.69 0 0 0 1.674 1.994c.248-.001.494-.057.718-.164v2.58a.48.48 0 0 1-.483.483h-8.7Z" stroke="#FAFAFA" stroke-width=".8" stroke-linecap="round" stroke-linejoin="round"/><path d="M38.09 289.918h4.846v3.867H38.09v-3.867Z" fill="#fff"/><path d="M41.778 289.918h8.532v3.867h-8.532v-3.867Z" fill="#fff"/><path d="M49.154 289.918h8.532v3.867h-8.532v-3.867Z" fill="#fff"/><path d="M56.53 289.918h8.532v3.867H56.53v-3.867Z" fill="#fff"/><path d="M63.905 289.918h8.533v3.867h-8.533v-3.867Z" fill="#fff"/><path d="M71.281 289.918h4.846v3.867h-4.846v-3.867Z" fill="#fff"/><path opacity=".2" d="M21.43 297.088v-11.117a.48.48 0 0 1 .483-.483h7.734a.482.482 0 0 1 .483.483v11.117h-8.7Z" fill="#FAFAFA"/><path d="M19.497 297.088h12.566M21.43 297.088v-11.117a.48.48 0 0 1 .483-.483h7.734a.482.482 0 0 1 .483.483v11.117" stroke="#FAFAFA" stroke-width=".8" stroke-linecap="round" stroke-linejoin="round"/><path d="M27.472 292.013a.725.725 0 1 0 0-1.45.725.725 0 0 0 0 1.45Z" fill="#FAFAFA"/><path d="M0 538.756h155V580H0v-41.244Z" fill="#000"/><path fill-rule="evenodd" clip-rule="evenodd" d="M155 539.4H0v-.644h155v.644Z" fill="#161616"/><path d="M15.467 551.644a2.578 2.578 0 0 1 2.578-2.578h15.8a2.578 2.578 0 0 1 2.577 2.578v15.467a2.578 2.578 0 0 1-2.577 2.578h-15.8a2.578 2.578 0 0 1-2.578-2.578v-15.467Z" fill="#EAFA35"/><path d="M21.416 558.01h5.12v2.32h-5.12v-2.32Z" fill="#060606"/><path d="M25.841 558.01h5.12v2.32h-5.12v-2.32Z" fill="#060606"/><path d="M40.897 557.193h7.679v3.48h-7.68v-3.48Z" fill="#fff"/><path d="M47.535 557.193h4.361v3.48h-4.361v-3.48Z" fill="#fff"/><path d="M50.854 557.193h7.68v3.48h-7.68v-3.48ZM64.448 557.193h7.679v3.48h-7.68v-3.48Z" fill="#fff"/><path d="M71.086 557.193h7.68v3.48h-7.68v-3.48Z" fill="#fff"/><path d="M77.724 557.193h4.362v3.48h-4.362v-3.48Z" fill="#fff"/><path d="M81.043 557.193h7.68v3.48h-7.68v-3.48Z" fill="#fff"/><path d="M87.682 557.193h7.679v3.48h-7.68v-3.48Z" fill="#fff"/><path d="M94.32 557.193h4.362v3.48H94.32v-3.48Z" fill="#fff"/><path d="M97.64 557.193h7.678v3.48h-7.679v-3.48Z" fill="#fff"/></g><g filter="url(#f)"><path d="M154.666 0h773.333v41.244H154.666V0Z" fill="#fff"/></g><path d="M816.834 21.323v4.132a.485.485 0 0 0 .483.484h8.7a.485.485 0 0 0 .483-.484v-4.132M817.196 15.305h8.942a.489.489 0 0 1 .465.35l.864 3.034h-11.6l.864-3.033a.49.49 0 0 1 .465-.35v0Z" stroke="#8979E8" stroke-width=".8" stroke-linecap="round" stroke-linejoin="round"/><path d="M819.734 18.689v.966a1.932 1.932 0 0 1-3.867 0v-.966" stroke="#8979E8" stroke-width=".8" stroke-linecap="round" stroke-linejoin="round"/><path d="M823.6 18.689v.966a1.931 1.931 0 0 1-3.3 1.367 1.931 1.931 0 0 1-.566-1.367v-.966" stroke="#8979E8" stroke-width=".8" stroke-linecap="round" stroke-linejoin="round"/><path d="M827.467 18.689v.966a1.936 1.936 0 0 1-1.933 1.934 1.936 1.936 0 0 1-1.934-1.934v-.966" stroke="#8979E8" stroke-width=".8" stroke-linecap="round" stroke-linejoin="round"/><g opacity=".4" fill="#060606"><path d="M834.148 20.25h5.973v2.707h-5.973V20.25Z"/><path d="M839.312 20.25h3.392v2.707h-3.392V20.25Z"/><path d="M841.893 20.25h5.973v2.707h-5.973V20.25Z"/><path d="M847.056 20.25h3.393v2.707h-3.393V20.25Z"/><path d="M849.638 20.25h3.392v2.707h-3.392V20.25Z"/><path d="M852.219 20.25h5.973v2.707h-5.973V20.25Z"/><path d="M857.382 20.25h3.393v2.707h-3.393V20.25Z"/><path d="M859.964 20.25h5.973v2.707h-5.973V20.25Z"/><path d="M865.127 20.25h3.392v2.707h-3.392V20.25Z"/><path d="M867.709 20.25h5.972v2.707h-5.972V20.25Z"/></g><path d="M208.395 64.07h5.972v2.707h-5.972V64.07Z" fill="#FAFAFA"/><path d="M213.558 64.07h5.972v2.707h-5.972V64.07Z" fill="#FAFAFA"/><path d="M218.721 64.07h5.972v2.707h-5.972V64.07Z" fill="#FAFAFA"/><path d="M223.884 64.07h5.973v2.707h-5.973V64.07Z" fill="#FAFAFA"/><path d="M229.047 64.07h3.392v2.707h-3.392V64.07Z" fill="#FAFAFA"/><path d="M231.629 64.07h5.972v2.707h-5.972V64.07Z" fill="#FAFAFA"/><path d="M236.792 64.07h5.972v2.707h-5.972V64.07Z" fill="#FAFAFA"/><path d="M241.955 64.07h5.972v2.707h-5.972V64.07Z" fill="#FAFAFA"/><path d="M247.118 64.07h5.973v2.707h-5.973V64.07Z" fill="#FAFAFA"/><path d="M252.281 64.07h3.392v2.707h-3.392V64.07Z" fill="#FAFAFA"/><path d="M254.862 64.07h3.393v2.707h-3.393V64.07ZM262.854 64.07h5.973v2.707h-5.973V64.07ZM273.427 64.07h5.972v2.707h-5.972V64.07Z" fill="#FAFAFA"/><path d="M278.59 64.07h5.973v2.707h-5.973V64.07Z" fill="#FAFAFA"/><path d="M283.753 64.07h3.392v2.707h-3.392V64.07Z" fill="#FAFAFA"/><path d="M286.335 64.07h5.972v2.707h-5.972V64.07Z" fill="#FAFAFA"/><path d="M291.498 64.07h3.392v2.707h-3.392V64.07Z" fill="#FAFAFA"/><path d="M294.079 64.07h5.973v2.707h-5.973V64.07Z" fill="#FAFAFA"/><path d="M299.242 64.07h5.973v2.707h-5.973V64.07Z" fill="#FAFAFA"/><path d="M304.405 64.07h5.973v2.707h-5.973V64.07Z" fill="#FAFAFA"/><path d="M309.569 64.07h5.972v2.707h-5.972V64.07Z" fill="#FAFAFA"/><path d="M314.732 64.07h3.392v2.707h-3.392V64.07Z" fill="#FAFAFA"/><path d="M317.313 64.07h3.393v2.707h-3.393V64.07Z" fill="#FAFAFA"/><path d="M319.895 64.07h5.972v2.707h-5.972V64.07ZM330.468 64.07h5.972v2.707h-5.972V64.07Z" fill="#FAFAFA"/><path d="M335.631 64.07h5.972v2.707h-5.972V64.07Z" fill="#FAFAFA"/><path d="M340.794 64.07h5.973v2.707h-5.973V64.07Z" fill="#FAFAFA"/><path d="M345.957 64.07h5.973v2.707h-5.973V64.07Z" fill="#FAFAFA"/><path d="M351.12 64.07h5.973v2.707h-5.973V64.07Z" fill="#FAFAFA"/><path d="M356.283 64.07h5.973v2.707h-5.973V64.07Z" fill="#FAFAFA"/><path d="M361.446 64.07h3.393v2.707h-3.393V64.07Z" fill="#FAFAFA"/><path d="M364.028 64.07h5.973v2.707h-5.973V64.07Z" fill="#FAFAFA"/><path d="M369.191 64.07h5.973v2.707h-5.973V64.07Z" fill="#FAFAFA"/><path d="M374.354 64.07h5.973v2.707h-5.973V64.07Z" fill="#FAFAFA"/><path d="M379.517 64.07h3.393v2.707h-3.393V64.07Z" fill="#FAFAFA"/><path d="M382.099 64.07h3.392v2.707h-3.392V64.07Z" fill="#FAFAFA"/><path d="M384.68 64.07h5.973v2.707h-5.973V64.07ZM395.253 64.07h5.973v2.707h-5.973V64.07Z" fill="#FAFAFA"/><path d="M400.416 64.07h5.973v2.707h-5.973V64.07Z" fill="#FAFAFA"/><path d="M405.579 64.07h5.973v2.707h-5.973V64.07Z" fill="#FAFAFA"/><path d="M410.743 64.07h3.392v2.707h-3.392V64.07Z" fill="#FAFAFA"/><path d="M413.324 64.07h5.973v2.707h-5.973V64.07Z" fill="#FAFAFA"/><path d="M418.487 64.07h3.393v2.707h-3.393V64.07Z" fill="#FAFAFA"/><path d="M421.069 64.07h5.972v2.707h-5.972V64.07Z" fill="#FAFAFA"/><path d="M426.232 64.07h3.392v2.707h-3.392V64.07Z" fill="#FAFAFA"/><path d="M428.813 64.07h5.973v2.707h-5.973V64.07Z" fill="#FAFAFA"/><path d="M433.977 64.07h3.392v2.707h-3.392V64.07Z" fill="#FAFAFA"/><path d="M436.558 64.07h5.973v2.707h-5.973V64.07Z" fill="#FAFAFA"/><path d="M441.721 64.07h5.973v2.707h-5.973V64.07Z" fill="#FAFAFA"/><path d="M446.884 64.07h5.973v2.707h-5.973V64.07Z" fill="#FAFAFA"/><path d="M452.047 64.07h5.973v2.707h-5.973V64.07Z" fill="#FAFAFA"/><path d="M457.21 64.07h3.393v2.707h-3.393V64.07Z" fill="#FAFAFA"/><path d="M208.799 257.777a5.155 5.155 0 0 1 5.155-5.156h314.489a5.155 5.155 0 0 1 5.156 5.156v247.466a5.155 5.155 0 0 1-5.156 5.156H213.954a5.155 5.155 0 0 1-5.155-5.156V257.777Z" fill="#fff"/><path fill-rule="evenodd" clip-rule="evenodd" d="M528.443 253.266H213.954a4.51 4.51 0 0 0-4.511 4.511v247.466a4.51 4.51 0 0 0 4.511 4.511h314.489a4.51 4.51 0 0 0 4.511-4.511V257.777a4.51 4.51 0 0 0-4.511-4.511Zm-314.489-.645a5.155 5.155 0 0 0-5.155 5.156v247.466a5.155 5.155 0 0 0 5.155 5.156h314.489a5.155 5.155 0 0 0 5.156-5.156V257.777a5.155 5.155 0 0 0-5.156-5.156H213.954Z" fill="#D9D9D9"/><g opacity=".2" fill="#000"><path d="M480.877 274.879h7.679v3.48h-7.679v-3.48Z"/><path d="M487.515 274.879h4.362v3.48h-4.362v-3.48Z"/><path d="M490.834 274.879h7.68v3.48h-7.68v-3.48Z"/><path d="M497.473 274.879h7.679v3.48h-7.679v-3.48Z"/><path d="M504.111 274.879h7.679v3.48h-7.679v-3.48Z"/><path d="M510.749 274.879h4.362v3.48h-4.362v-3.48Z"/><path d="M514.068 274.879h4.362v3.48h-4.362v-3.48Z"/></g><g opacity=".2" fill="#000"><path d="M223.742 274.879h4.362v3.48h-4.362v-3.48Z"/><path d="M227.061 274.879h7.68v3.48h-7.68v-3.48Z"/><path d="M233.7 274.879h7.679v3.48H233.7v-3.48Z"/><path d="M240.338 274.879h7.679v3.48h-7.679v-3.48Z"/><path d="M246.976 274.879h4.362v3.48h-4.362v-3.48Z"/><path d="M250.295 274.879h7.68v3.48h-7.68v-3.48Z"/><path d="M256.934 274.879h7.679v3.48h-7.679v-3.48Z"/><path d="M263.572 274.879h7.679v3.48h-7.679v-3.48Z"/><path d="M270.21 274.879h7.679v3.48h-7.679v-3.48Z"/><path d="M276.848 274.879h4.362v3.48h-4.362v-3.48Z"/><path d="M280.168 274.879h7.679v3.48h-7.679v-3.48Z"/></g><path d="M224.264 288.709H518.13v41.244H224.264v-41.244Z" fill="#fff"/><rect x="224.264" y="293.865" width="30.933" height="30.933" rx="4" fill="#F6F6F6"/><g opacity=".5"><path d="M264.986 300.656h7.68v3.48h-7.68v-3.48Z" fill="#060606"/><path d="M271.625 300.656h4.361v3.48h-4.361v-3.48Z" fill="#060606"/><path d="M274.944 300.656h7.679v3.48h-7.679v-3.48Z" fill="#060606"/><path d="M281.582 300.656h7.679v3.48h-7.679v-3.48Z" fill="#060606"/><path d="M288.22 300.656h4.362v3.48h-4.362v-3.48Z" fill="#060606"/><path d="M291.539 300.656h7.68v3.48h-7.68v-3.48Z" fill="#060606"/><path d="M298.178 300.656h4.361v3.48h-4.361v-3.48Z" fill="#060606"/><path d="M301.497 300.656h7.679v3.48h-7.679v-3.48Z" fill="#060606"/><path d="M308.135 300.656h7.679v3.48h-7.679v-3.48Z" fill="#060606"/><path d="M314.773 300.656h7.68v3.48h-7.68v-3.48Z" fill="#060606"/><path d="M264.986 316.123h7.68v3.48h-7.68v-3.48Z" fill="gray"/><path d="M271.625 316.123h7.679v3.48h-7.679v-3.48Z" fill="gray"/><path d="M278.263 316.123h7.679v3.48h-7.679v-3.48Z" fill="gray"/><path d="M284.901 316.123h7.679v3.48h-7.679v-3.48Z" fill="gray"/><path d="M291.539 316.123h4.362v3.48h-4.362v-3.48Z" fill="gray"/><path d="M294.859 316.123h7.679v3.48h-7.679v-3.48Z" fill="gray"/><path d="M301.497 316.123h7.679v3.48h-7.679v-3.48Z" fill="gray"/></g><path d="M224.264 329.953H518.13v41.245H224.264v-41.245Z" fill="#fff"/><rect x="224.264" y="335.109" width="30.933" height="30.933" rx="2.578" fill="#F6F6F6"/><g opacity=".5"><path d="M264.986 341.898h7.68v3.48h-7.68v-3.48Z" fill="#060606"/><path d="M271.625 341.898h7.679v3.48h-7.679v-3.48Z" fill="#060606"/><path d="M278.263 341.898h7.679v3.48h-7.679v-3.48Z" fill="#060606"/><path d="M284.901 341.898h4.362v3.48h-4.362v-3.48Z" fill="#060606"/><path d="M288.22 341.898h4.362v3.48h-4.362v-3.48Z" fill="#060606"/><path d="M291.539 341.898h7.68v3.48h-7.68v-3.48Z" fill="#060606"/><path d="M298.178 341.898h7.679v3.48h-7.679v-3.48Z" fill="#060606"/><path d="M304.816 341.898h7.679v3.48h-7.679v-3.48Z" fill="#060606"/><path d="M311.454 341.898h7.679v3.48h-7.679v-3.48Z" fill="#060606"/><path d="M318.093 341.898h4.361v3.48h-4.361v-3.48Z" fill="#060606"/><path d="M321.412 341.898h4.361v3.48h-4.361v-3.48Z" fill="#060606"/><path d="M324.731 341.898h7.679v3.48h-7.679v-3.48Z" fill="#060606"/><path d="M331.369 341.898h7.679v3.48h-7.679v-3.48Z" fill="#060606"/><path d="M338.007 341.898h4.362v3.48h-4.362v-3.48Z" fill="#060606"/><path d="M264.986 357.365h7.68v3.48h-7.68v-3.48Z" fill="gray"/><path d="M271.625 357.365h7.679v3.48h-7.679v-3.48Z" fill="gray"/><path d="M278.263 357.365h7.679v3.48h-7.679v-3.48Z" fill="gray"/><path d="M284.901 357.365h7.679v3.48h-7.679v-3.48Z" fill="gray"/><path d="M291.539 357.365h4.362v3.48h-4.362v-3.48Z" fill="gray"/><path d="M294.859 357.365h7.679v3.48h-7.679v-3.48Z" fill="gray"/><path d="M301.497 357.365h7.679v3.48h-7.679v-3.48Z" fill="gray"/></g><path d="M224.264 371.197H518.13v41.245H224.264v-41.245Z" fill="#fff"/><rect x="224.264" y="376.354" width="30.933" height="30.933" rx="2.578" fill="#F6F6F6"/><g opacity=".5"><path d="M264.986 383.145h7.68v3.48h-7.68v-3.48Z" fill="#060606"/><path d="M271.625 383.145h4.361v3.48h-4.361v-3.48Z" fill="#060606"/><path d="M274.944 383.145h4.361v3.48h-4.361v-3.48Z" fill="#060606"/><path d="M278.263 383.145h4.361v3.48h-4.361v-3.48Z" fill="#060606"/><path d="M281.582 383.145h4.362v3.48h-4.362v-3.48Z" fill="#060606"/><path d="M284.901 383.145h7.679v3.48h-7.679v-3.48Z" fill="#060606"/><path d="M291.539 383.145h7.68v3.48h-7.68v-3.48Z" fill="#060606"/><path d="M298.178 383.145h4.361v3.48h-4.361v-3.48Z" fill="#060606"/><path d="M301.497 383.145h4.361v3.48h-4.361v-3.48Z" fill="#060606"/><path d="M304.816 383.145h7.679v3.48h-7.679v-3.48Z" fill="#060606"/><path d="M311.454 383.145h7.679v3.48h-7.679v-3.48Z" fill="#060606"/><path d="M318.093 383.145h4.361v3.48h-4.361v-3.48Z" fill="#060606"/><path d="M321.412 383.145h7.679v3.48h-7.679v-3.48Z" fill="#060606"/><path d="M328.05 383.145h4.362v3.48h-4.362v-3.48Z" fill="#060606"/><path d="M331.369 383.145h7.679v3.48h-7.679v-3.48Z" fill="#060606"/><path d="M338.007 383.145h7.68v3.48h-7.68v-3.48Z" fill="#060606"/><path d="M344.646 383.145h7.679v3.48h-7.679v-3.48Z" fill="#060606"/><path d="M351.284 383.145h7.679v3.48h-7.679v-3.48Z" fill="#060606"/><path d="M357.922 383.145h7.679v3.48h-7.679v-3.48Z" fill="#060606"/><path d="M364.561 383.145h4.361v3.48h-4.361v-3.48Z" fill="#060606"/><path d="M367.88 383.145h4.361v3.48h-4.361v-3.48Z" fill="#060606"/><path d="M371.199 383.145h7.679v3.48h-7.679v-3.48Z" fill="#060606"/><path d="M377.837 383.145h7.679v3.48h-7.679v-3.48Z" fill="#060606"/><path d="M264.986 398.611h7.68v3.48h-7.68v-3.48Z" fill="gray"/><path d="M271.625 398.611h7.679v3.48h-7.679v-3.48Z" fill="gray"/><path d="M278.263 398.611h7.679v3.48h-7.679v-3.48Z" fill="gray"/><path d="M284.901 398.611h7.679v3.48h-7.679v-3.48Z" fill="gray"/><path d="M291.539 398.611h4.362v3.48h-4.362v-3.48Z" fill="gray"/><path d="M294.859 398.611h7.679v3.48h-7.679v-3.48Z" fill="gray"/><path d="M301.497 398.611h7.679v3.48h-7.679v-3.48Z" fill="gray"/></g><path d="M224.264 453.688H518.13v41.244H224.264v-41.244Z" fill="#fff"/><rect x="224.264" y="458.844" width="30.933" height="30.933" rx="2.578" fill="#F6F6F6"/><g opacity=".5"><path d="M264.986 465.633h7.68v3.48h-7.68v-3.48Z" fill="#060606"/><path d="M271.625 465.633h7.679v3.48h-7.679v-3.48Z" fill="#060606"/><path d="M278.263 465.633h7.679v3.48h-7.679v-3.48Z" fill="#060606"/><path d="M284.901 465.633h4.362v3.48h-4.362v-3.48Z" fill="#060606"/><path d="M288.22 465.633h4.362v3.48h-4.362v-3.48Z" fill="#060606"/><path d="M291.539 465.633h7.68v3.48h-7.68v-3.48Z" fill="#060606"/><path d="M298.178 465.633h7.679v3.48h-7.679v-3.48Z" fill="#060606"/><path d="M304.816 465.633h4.362v3.48h-4.362v-3.48Z" fill="#060606"/><path d="M308.135 465.633h7.679v3.48h-7.679v-3.48Z" fill="#060606"/><path d="M314.773 465.633h7.68v3.48h-7.68v-3.48Z" fill="#060606"/><path d="M321.412 465.633h7.679v3.48h-7.679v-3.48Z" fill="#060606"/><path d="M328.05 465.633h7.679v3.48h-7.679v-3.48Z" fill="#060606"/><path d="M334.688 465.633h7.679v3.48h-7.679v-3.48Z" fill="#060606"/><path d="M341.327 465.633h7.679v3.48h-7.679v-3.48Z" fill="#060606"/><path d="M347.965 465.633h7.679v3.48h-7.679v-3.48Z" fill="#060606"/><path d="M354.603 465.633h4.362v3.48h-4.362v-3.48Z" fill="#060606"/><path d="M357.922 465.633h7.679v3.48h-7.679v-3.48Z" fill="#060606"/><path d="M364.561 465.633h7.679v3.48h-7.679v-3.48Z" fill="#060606"/><path d="M371.199 465.633h7.679v3.48h-7.679v-3.48Z" fill="#060606"/><path d="M264.986 481.1h7.68v3.48h-7.68v-3.48Z" fill="gray"/><path d="M271.625 481.1h7.679v3.48h-7.679v-3.48Z" fill="gray"/><path d="M278.263 481.1h7.679v3.48h-7.679v-3.48Z" fill="gray"/><path d="M284.901 481.1h7.679v3.48h-7.679v-3.48Z" fill="gray"/><path d="M291.539 481.1h4.362v3.48h-4.362v-3.48Z" fill="gray"/><path d="M294.859 481.1h7.679v3.48h-7.679v-3.48Z" fill="gray"/><path d="M301.497 481.1h7.679v3.48h-7.679v-3.48Z" fill="gray"/></g><path d="M224.264 412.443H518.13v41.245H224.264v-41.245Z" fill="#fff"/><rect x="224.264" y="417.6" width="30.933" height="30.933" rx="2.578" fill="#F6F6F6"/><g opacity=".5"><path d="M264.986 424.393h7.68v3.48h-7.68v-3.48Z" fill="#060606"/><path d="M271.625 424.393h7.679v3.48h-7.679v-3.48Z" fill="#060606"/><path d="M278.263 424.393h7.679v3.48h-7.679v-3.48Z" fill="#060606"/><path d="M284.901 424.393h7.679v3.48h-7.679v-3.48Z" fill="#060606"/><path d="M291.539 424.393h7.68v3.48h-7.68v-3.48Z" fill="#060606"/><path d="M298.178 424.393h4.361v3.48h-4.361v-3.48Z" fill="#060606"/><path d="M301.497 424.393h4.361v3.48h-4.361v-3.48Z" fill="#060606"/><path d="M264.986 439.86h7.68v3.48h-7.68v-3.48Z" fill="gray"/><path d="M271.625 439.86h7.679v3.48h-7.679v-3.48Z" fill="gray"/><path d="M278.263 439.86h7.679v3.48h-7.679v-3.48Z" fill="gray"/><path d="M284.901 439.86h7.679v3.48h-7.679v-3.48Z" fill="gray"/><path d="M291.539 439.86h4.362v3.48h-4.362v-3.48Z" fill="gray"/><path d="M294.859 439.86h7.679v3.48h-7.679v-3.48Z" fill="gray"/><path d="M301.497 439.86h7.679v3.48h-7.679v-3.48Z" fill="gray"/></g><path d="M549.066 257.777a5.156 5.156 0 0 1 5.156-5.156h314.489a5.155 5.155 0 0 1 5.155 5.156v247.466a5.155 5.155 0 0 1-5.155 5.156H554.222a5.156 5.156 0 0 1-5.156-5.156V257.777Z" fill="#fff"/><path fill-rule="evenodd" clip-rule="evenodd" d="M868.711 253.266H554.222a4.51 4.51 0 0 0-4.511 4.511v247.466a4.51 4.51 0 0 0 4.511 4.511h314.489a4.51 4.51 0 0 0 4.511-4.511V257.777a4.51 4.51 0 0 0-4.511-4.511Zm-314.489-.645a5.156 5.156 0 0 0-5.156 5.156v247.466a5.156 5.156 0 0 0 5.156 5.156h314.489a5.155 5.155 0 0 0 5.155-5.156V257.777a5.155 5.155 0 0 0-5.155-5.156H554.222Z" fill="#D9D9D9"/><g opacity=".5" fill="#000"><g opacity=".2"><path d="M564.01 274.879h4.361v3.48h-4.361v-3.48Z"/><path d="M567.329 274.879h7.679v3.48h-7.679v-3.48Z"/><path d="M573.967 274.879h7.679v3.48h-7.679v-3.48Z"/><path d="M580.605 274.879h7.68v3.48h-7.68v-3.48Z"/><path d="M587.244 274.879h7.679v3.48h-7.679v-3.48Z"/><path d="M593.882 274.879h7.679v3.48h-7.679v-3.48Z"/><path d="M600.52 274.879h4.362v3.48h-4.362v-3.48Z"/><path d="M603.839 274.879h7.68v3.48h-7.68v-3.48Z"/><path d="M610.478 274.879h7.679v3.48h-7.679v-3.48Z"/><path d="M617.116 274.879h7.679v3.48h-7.679v-3.48Z"/><path d="M623.754 274.879h4.362v3.48h-4.362v-3.48Z"/><path d="M627.073 274.879h7.68v3.48h-7.68v-3.48Z"/></g><g opacity=".5"><path d="M821.143 274.879h7.679v3.48h-7.679v-3.48Z"/><path d="M827.781 274.879h4.361v3.48h-4.361v-3.48Z"/><path d="M831.1 274.879h7.679v3.48H831.1v-3.48Z"/><path d="M837.738 274.879h7.679v3.48h-7.679v-3.48Z"/><path d="M844.377 274.879h7.679v3.48h-7.679v-3.48Z"/><path d="M851.015 274.879h4.361v3.48h-4.361v-3.48Z"/><path d="M854.334 274.879h4.362v3.48h-4.362v-3.48Z"/></g></g><g opacity=".5"><path d="M564.533 288.709H858.4v41.244H564.533v-41.244Z" fill="#fff"/><path d="M564.01 300.656h7.679v3.48h-7.679v-3.48Z" fill="#060606"/><path d="M570.648 300.656h7.679v3.48h-7.679v-3.48Z" fill="#060606"/><path d="M577.286 300.656h4.362v3.48h-4.362v-3.48Z" fill="#060606"/><path d="M580.605 300.656h7.68v3.48h-7.68v-3.48Z" fill="#060606"/><path d="M587.244 300.656h7.679v3.48h-7.679v-3.48Z" fill="#060606"/><path d="M593.882 300.656h4.362v3.48h-4.362v-3.48Z" fill="#060606"/><path d="M597.201 300.656h7.679v3.48h-7.679v-3.48Z" fill="#060606"/><path d="M603.839 300.656h7.68v3.48h-7.68v-3.48Z" fill="#060606"/><path d="M610.478 300.656h7.679v3.48h-7.679v-3.48Z" fill="#060606"/><path d="M617.116 300.656h7.679v3.48h-7.679v-3.48Z" fill="#060606"/><path d="M623.754 300.656h4.362v3.48h-4.362v-3.48Z" fill="#060606"/><path d="M627.073 300.656h7.68v3.48h-7.68v-3.48Z" fill="#060606"/><path d="M564.01 316.123h4.361v3.48h-4.361v-3.48Z" fill="gray"/><path d="M567.329 316.123h7.679v3.48h-7.679v-3.48Z" fill="gray"/><path d="M573.967 316.123h4.362v3.48h-4.362v-3.48Z" fill="gray"/><path d="M577.286 316.123h7.68v3.48h-7.68v-3.48Z" fill="gray"/><path d="M583.925 316.123h4.361v3.48h-4.361v-3.48Z" fill="gray"/><path d="M587.244 316.123h7.679v3.48h-7.679v-3.48Z" fill="gray"/><path d="M593.882 316.123h7.679v3.48h-7.679v-3.48Z" fill="gray"/><path d="M600.52 316.123h7.68v3.48h-7.68v-3.48Z" fill="gray"/><path d="M607.159 316.123h7.679v3.48h-7.679v-3.48Z" fill="gray"/><path d="M613.797 316.123h4.361v3.48h-4.361v-3.48Z" fill="gray"/><path d="M617.116 316.123h4.362v3.48h-4.362v-3.48Z" fill="gray"/><path d="M620.435 316.123h4.362v3.48h-4.362v-3.48Z" fill="gray"/><path d="M623.754 316.123h7.68v3.48h-7.68v-3.48Z" fill="gray"/><path d="M630.393 316.123h7.679v3.48h-7.679v-3.48Z" fill="gray"/><path d="M637.031 316.123h4.361v3.48h-4.361v-3.48Z" fill="gray"/><path d="M640.35 316.123h7.679v3.48h-7.679v-3.48Z" fill="gray"/><path d="M646.988 316.123h7.679v3.48h-7.679v-3.48Z" fill="gray"/><path d="M653.627 316.123h7.679v3.48h-7.679v-3.48Z" fill="gray"/><path d="M660.265 316.123h4.361v3.48h-4.361v-3.48Z" fill="gray"/><path d="M663.584 316.123h7.679v3.48h-7.679v-3.48Z" fill="gray"/><path d="M670.222 316.123h7.679v3.48h-7.679v-3.48Z" fill="gray"/><path d="M564.533 329.953H858.4v41.245H564.533v-41.245Z" fill="#fff"/><path d="M564.01 341.898h7.679v3.48h-7.679v-3.48Z" fill="#060606"/><path d="M570.648 341.898h4.362v3.48h-4.362v-3.48Z" fill="#060606"/><path d="M573.967 341.898h7.679v3.48h-7.679v-3.48Z" fill="#060606"/><path d="M580.605 341.898h7.68v3.48h-7.68v-3.48Z" fill="#060606"/><path d="M587.244 341.898h7.679v3.48h-7.679v-3.48Z" fill="#060606"/><path d="M593.882 341.898h4.362v3.48h-4.362v-3.48Z" fill="#060606"/><path d="M597.201 341.898h7.679v3.48h-7.679v-3.48Z" fill="#060606"/><path d="M603.839 341.898h7.68v3.48h-7.68v-3.48Z" fill="#060606"/><path d="M610.478 341.898h7.679v3.48h-7.679v-3.48Z" fill="#060606"/><path d="M617.116 341.898h4.362v3.48h-4.362v-3.48Z" fill="#060606"/><path d="M620.435 341.898h7.679v3.48h-7.679v-3.48Z" fill="#060606"/><path d="M627.073 341.898h7.68v3.48h-7.68v-3.48Z" fill="#060606"/><path d="M633.712 341.898h7.679v3.48h-7.679v-3.48Z" fill="#060606"/><path d="M640.35 341.898h7.679v3.48h-7.679v-3.48Z" fill="#060606"/><path d="M646.988 341.898h7.679v3.48h-7.679v-3.48Z" fill="#060606"/><path d="M564.01 357.365h4.361v3.48h-4.361v-3.48Z" fill="gray"/><path d="M567.329 357.365h7.679v3.48h-7.679v-3.48Z" fill="gray"/><path d="M573.967 357.365h4.362v3.48h-4.362v-3.48Z" fill="gray"/><path d="M577.286 357.365h7.68v3.48h-7.68v-3.48Z" fill="gray"/><path d="M583.925 357.365h4.361v3.48h-4.361v-3.48Z" fill="gray"/><path d="M587.244 357.365h7.679v3.48h-7.679v-3.48Z" fill="gray"/><path d="M593.882 357.365h7.679v3.48h-7.679v-3.48Z" fill="gray"/><path d="M600.52 357.365h7.68v3.48h-7.68v-3.48Z" fill="gray"/><path d="M607.159 357.365h7.679v3.48h-7.679v-3.48Z" fill="gray"/><path d="M613.797 357.365h4.361v3.48h-4.361v-3.48Z" fill="gray"/><path d="M617.116 357.365h4.362v3.48h-4.362v-3.48Z" fill="gray"/><path d="M620.435 357.365h4.362v3.48h-4.362v-3.48Z" fill="gray"/><path d="M623.754 357.365h7.68v3.48h-7.68v-3.48Z" fill="gray"/><path d="M630.393 357.365h4.361v3.48h-4.361v-3.48Z" fill="gray"/><path d="M633.712 357.365h7.679v3.48h-7.679v-3.48Z" fill="gray"/><path d="M640.35 357.365h7.679v3.48h-7.679v-3.48Z" fill="gray"/><path d="M646.988 357.365h7.679v3.48h-7.679v-3.48Z" fill="gray"/><path d="M653.627 357.365h4.361v3.48h-4.361v-3.48Z" fill="gray"/><path d="M656.946 357.365h7.679v3.48h-7.679v-3.48Z" fill="gray"/><path d="M663.584 357.365h7.679v3.48h-7.679v-3.48Z" fill="gray"/><path d="M564.533 371.197H858.4v41.245H564.533v-41.245Z" fill="#fff"/><path d="M564.01 383.145h7.679v3.48h-7.679v-3.48Z" fill="#060606"/><path d="M570.648 383.145h7.679v3.48h-7.679v-3.48Z" fill="#060606"/><path d="M577.286 383.145h4.362v3.48h-4.362v-3.48Z" fill="#060606"/><path d="M580.605 383.145h4.362v3.48h-4.362v-3.48Z" fill="#060606"/><path d="M583.925 383.145h7.679v3.48h-7.679v-3.48Z" fill="#060606"/><path d="M590.563 383.145h7.679v3.48h-7.679v-3.48Z" fill="#060606"/><path d="M597.201 383.145h7.679v3.48h-7.679v-3.48Z" fill="#060606"/><path d="M603.839 383.145h7.68v3.48h-7.68v-3.48Z" fill="#060606"/><path d="M610.478 383.145h7.679v3.48h-7.679v-3.48Z" fill="#060606"/><path d="M617.116 383.145h7.679v3.48h-7.679v-3.48Z" fill="#060606"/><path d="M623.754 383.145h7.679v3.48h-7.679v-3.48Z" fill="#060606"/><path d="M630.393 383.145h4.361v3.48h-4.361v-3.48Z" fill="#060606"/><path d="M633.712 383.145h4.361v3.48h-4.361v-3.48Z" fill="#060606"/><path d="M637.031 383.145h7.679v3.48h-7.679v-3.48Z" fill="#060606"/><path d="M643.669 383.145h7.679v3.48h-7.679v-3.48Z" fill="#060606"/><path d="M650.307 383.145h7.68v3.48h-7.68v-3.48Z" fill="#060606"/><path d="M564.01 398.611h4.361v3.48h-4.361v-3.48Z" fill="gray"/><path d="M567.329 398.611h7.679v3.48h-7.679v-3.48Z" fill="gray"/><path d="M573.967 398.611h4.362v3.48h-4.362v-3.48Z" fill="gray"/><path d="M577.286 398.611h7.68v3.48h-7.68v-3.48Z" fill="gray"/><path d="M583.925 398.611h4.361v3.48h-4.361v-3.48Z" fill="gray"/><path d="M587.244 398.611h7.679v3.48h-7.679v-3.48Z" fill="gray"/><path d="M593.882 398.611h7.679v3.48h-7.679v-3.48Z" fill="gray"/><path d="M600.52 398.611h7.68v3.48h-7.68v-3.48Z" fill="gray"/><path d="M607.159 398.611h7.679v3.48h-7.679v-3.48Z" fill="gray"/><path d="M613.797 398.611h4.361v3.48h-4.361v-3.48Z" fill="gray"/><path d="M617.116 398.611h4.362v3.48h-4.362v-3.48Z" fill="gray"/><path d="M620.435 398.611h4.362v3.48h-4.362v-3.48Z" fill="gray"/><path d="M623.754 398.611h7.68v3.48h-7.68v-3.48Z" fill="gray"/><path d="M630.393 398.611h4.361v3.48h-4.361v-3.48Z" fill="gray"/><path d="M633.712 398.611h7.679v3.48h-7.679v-3.48Z" fill="gray"/><path d="M640.35 398.611h7.679v3.48h-7.679v-3.48Z" fill="gray"/><path d="M646.988 398.611h7.679v3.48h-7.679v-3.48Z" fill="gray"/><path d="M653.627 398.611h4.361v3.48h-4.361v-3.48Z" fill="gray"/><path d="M656.946 398.611h7.679v3.48h-7.679v-3.48Z" fill="gray"/><path d="M663.584 398.611h7.679v3.48h-7.679v-3.48Z" fill="gray"/><path d="M564.533 453.688H858.4v41.244H564.533v-41.244Z" fill="#fff"/><path d="M564.01 465.633h7.679v3.48h-7.679v-3.48Z" fill="#060606"/><path d="M570.648 465.633h4.362v3.48h-4.362v-3.48Z" fill="#060606"/><path d="M573.967 465.633h7.679v3.48h-7.679v-3.48Z" fill="#060606"/><path d="M580.605 465.633h7.68v3.48h-7.68v-3.48Z" fill="#060606"/><path d="M587.244 465.633h4.361v3.48h-4.361v-3.48Z" fill="#060606"/><path d="M590.563 465.633h4.361v3.48h-4.361v-3.48Z" fill="#060606"/><path d="M593.882 465.633h4.362v3.48h-4.362v-3.48Z" fill="#060606"/><path d="M597.201 465.633h4.362v3.48h-4.362v-3.48Z" fill="#060606"/><path d="M600.52 465.633h7.68v3.48h-7.68v-3.48Z" fill="#060606"/><path d="M607.159 465.633h4.361v3.48h-4.361v-3.48Z" fill="#060606"/><path d="M610.478 465.633h7.679v3.48h-7.679v-3.48Z" fill="#060606"/><path d="M617.116 465.633h7.679v3.48h-7.679v-3.48Z" fill="#060606"/><path d="M564.01 481.1h4.361v3.48h-4.361v-3.48Z" fill="gray"/><path d="M567.329 481.1h7.679v3.48h-7.679v-3.48Z" fill="gray"/><path d="M573.967 481.1h4.362v3.48h-4.362v-3.48Z" fill="gray"/><path d="M577.286 481.1h7.68v3.48h-7.68v-3.48Z" fill="gray"/><path d="M583.925 481.1h4.361v3.48h-4.361v-3.48Z" fill="gray"/><path d="M587.244 481.1h7.679v3.48h-7.679v-3.48Z" fill="gray"/><path d="M593.882 481.1h7.679v3.48h-7.679v-3.48Z" fill="gray"/><path d="M600.52 481.1h7.68v3.48h-7.68v-3.48Z" fill="gray"/><path d="M607.159 481.1h7.679v3.48h-7.679v-3.48Z" fill="gray"/><path d="M613.797 481.1h4.361v3.48h-4.361v-3.48Z" fill="gray"/><path d="M617.116 481.1h4.362v3.48h-4.362v-3.48Z" fill="gray"/><path d="M620.435 481.1h4.362v3.48h-4.362v-3.48Z" fill="gray"/><path d="M623.754 481.1h7.68v3.48h-7.68v-3.48Z" fill="gray"/><path d="M630.393 481.1h4.361v3.48h-4.361v-3.48Z" fill="gray"/><path d="M633.712 481.1h7.679v3.48h-7.679v-3.48Z" fill="gray"/><path d="M640.35 481.1h7.679v3.48h-7.679v-3.48Z" fill="gray"/><path d="M646.988 481.1h7.679v3.48h-7.679v-3.48Z" fill="gray"/><path d="M653.627 481.1h4.361v3.48h-4.361v-3.48Z" fill="gray"/><path d="M656.946 481.1h7.679v3.48h-7.679v-3.48Z" fill="gray"/><path d="M663.584 481.1h7.679v3.48h-7.679v-3.48Z" fill="gray"/><path d="M564.533 412.443H858.4v41.245H564.533v-41.245Z" fill="#fff"/><path d="M564.01 424.393h7.679v3.48h-7.679v-3.48Z" fill="#060606"/><path d="M570.648 424.393h7.679v3.48h-7.679v-3.48Z" fill="#060606"/><path d="M577.286 424.393h7.68v3.48h-7.68v-3.48Z" fill="#060606"/><path d="M583.925 424.393h7.679v3.48h-7.679v-3.48Z" fill="#060606"/><path d="M590.563 424.393h4.361v3.48h-4.361v-3.48Z" fill="#060606"/><path d="M593.882 424.393h4.362v3.48h-4.362v-3.48Z" fill="#060606"/><path d="M597.201 424.393h7.679v3.48h-7.679v-3.48Z" fill="#060606"/><path d="M603.839 424.393h7.68v3.48h-7.68v-3.48Z" fill="#060606"/><path d="M610.478 424.393h4.361v3.48h-4.361v-3.48Z" fill="#060606"/><path d="M613.797 424.393h7.679v3.48h-7.679v-3.48Z" fill="#060606"/><path d="M620.435 424.393h7.679v3.48h-7.679v-3.48Z" fill="#060606"/><path d="M627.073 424.393h7.68v3.48h-7.68v-3.48Z" fill="#060606"/><path d="M564.01 439.86h4.361v3.48h-4.361v-3.48Z" fill="gray"/><path d="M567.329 439.86h7.679v3.48h-7.679v-3.48Z" fill="gray"/><path d="M573.967 439.86h4.362v3.48h-4.362v-3.48Z" fill="gray"/><path d="M577.286 439.86h7.68v3.48h-7.68v-3.48Z" fill="gray"/><path d="M583.925 439.86h4.361v3.48h-4.361v-3.48Z" fill="gray"/><path d="M587.244 439.86h7.679v3.48h-7.679v-3.48Z" fill="gray"/><path d="M593.882 439.86h7.679v3.48h-7.679v-3.48Z" fill="gray"/><path d="M600.52 439.86h7.68v3.48h-7.68v-3.48Z" fill="gray"/><path d="M607.159 439.86h7.679v3.48h-7.679v-3.48Z" fill="gray"/><path d="M613.797 439.86h4.361v3.48h-4.361v-3.48Z" fill="gray"/><path d="M617.116 439.86h4.362v3.48h-4.362v-3.48Z" fill="gray"/><path d="M620.435 439.86h4.362v3.48h-4.362v-3.48Z" fill="gray"/><path d="M623.754 439.86h7.68v3.48h-7.68v-3.48Z" fill="gray"/><path d="M630.393 439.86h4.361v3.48h-4.361v-3.48Z" fill="gray"/><path d="M633.712 439.86h7.679v3.48h-7.679v-3.48Z" fill="gray"/><path d="M640.35 439.86h7.679v3.48h-7.679v-3.48Z" fill="gray"/><path d="M646.988 439.86h7.679v3.48h-7.679v-3.48Z" fill="gray"/><path d="M653.627 439.86h4.361v3.48h-4.361v-3.48Z" fill="gray"/><path d="M656.946 439.86h7.679v3.48h-7.679v-3.48Z" fill="gray"/><path d="M663.584 439.86h7.679v3.48h-7.679v-3.48Z" fill="gray"/></g><path d="M208.799 92.8a5.155 5.155 0 0 1 5.155-5.156h201.067a5.156 5.156 0 0 1 5.156 5.156v51.556a5.156 5.156 0 0 1-5.156 5.155H213.954a5.155 5.155 0 0 1-5.155-5.155V92.8Z" fill="#fff"/><path fill-rule="evenodd" clip-rule="evenodd" d="M415.021 88.289H213.954a4.511 4.511 0 0 0-4.511 4.511v51.556a4.511 4.511 0 0 0 4.511 4.511h201.067a4.511 4.511 0 0 0 4.511-4.511V92.8a4.511 4.511 0 0 0-4.511-4.511Zm-201.067-.645a5.155 5.155 0 0 0-5.155 5.156v51.556a5.155 5.155 0 0 0 5.155 5.155h201.067a5.156 5.156 0 0 0 5.156-5.155V92.8a5.156 5.156 0 0 0-5.156-5.156H213.954Z" fill="#D9D9D9"/><g opacity=".8" fill="#060606"><path d="M218.59 125.367h4.361v3.48h-4.361v-3.48Z"/><path d="M221.909 125.367h7.679v3.48h-7.679v-3.48Z"/><path d="M228.547 125.367h7.679v3.48h-7.679v-3.48Z"/><path d="M235.186 125.367h4.361v3.48h-4.361v-3.48Z"/><path d="M238.505 125.367h7.679v3.48h-7.679v-3.48Z"/><path d="M245.143 125.367h7.679v3.48h-7.679v-3.48Z"/></g><path d="M219.111 101.369h4.362v3.48h-4.362v-3.48Z" fill="gray"/><path d="M222.43 101.369h7.68v3.48h-7.68v-3.48Z" fill="gray"/><path d="M229.069 101.369h7.679v3.48h-7.679v-3.48Z" fill="gray"/><path d="M235.707 101.369h7.679v3.48h-7.679v-3.48Z" fill="gray"/><path d="M242.345 101.369h7.68v3.48h-7.68v-3.48Z" fill="gray"/><path d="M248.984 101.369h4.361v3.48h-4.361v-3.48Z" fill="gray"/><path d="M252.303 101.369h7.679v3.48h-7.679v-3.48Z" fill="gray"/><g clip-path="url(#g)" fill="#A2A2A2"><path fill-rule="evenodd" clip-rule="evenodd" d="M267.715 99.725a3.383 3.383 0 1 0 0 6.767 3.383 3.383 0 0 0 0-6.767Zm-4.35 3.384a4.35 4.35 0 1 1 8.7 0 4.35 4.35 0 0 1-8.7 0Z"/><path fill-rule="evenodd" clip-rule="evenodd" d="M267.715 100.692c.267 0 .484.216.484.483v2.095a.484.484 0 0 1-.967 0v-2.095c0-.267.216-.483.483-.483Z"/><path d="M267.715 105.525a.644.644 0 1 0 .001-1.289.644.644 0 0 0-.001 1.289Z"/></g><g filter="url(#h)"><path fill-rule="evenodd" clip-rule="evenodd" d="m363.467 115.647 6.325 3.442 8.175-3.442 6.325 3.188 6.767-5.835 8.661 7.41 10.147-5.988v24.356h-46.4v-23.131Z" fill="url(#i)"/></g><path d="M435.645 92.8a5.155 5.155 0 0 1 5.155-5.156h201.067a5.155 5.155 0 0 1 5.155 5.156v51.556a5.155 5.155 0 0 1-5.155 5.155H440.8a5.155 5.155 0 0 1-5.155-5.155V92.8Z" fill="#fff"/><path fill-rule="evenodd" clip-rule="evenodd" d="M641.867 88.289H440.8a4.511 4.511 0 0 0-4.511 4.511v51.556a4.511 4.511 0 0 0 4.511 4.511h201.067a4.511 4.511 0 0 0 4.511-4.511V92.8a4.511 4.511 0 0 0-4.511-4.511ZM440.8 87.644a5.155 5.155 0 0 0-5.155 5.156v51.556a5.155 5.155 0 0 0 5.155 5.155h201.067a5.155 5.155 0 0 0 5.155-5.155V92.8a5.155 5.155 0 0 0-5.155-5.156H440.8Z" fill="#D9D9D9"/><g opacity=".8" fill="#060606"><path d="M445.438 125.369h4.361v3.48h-4.361v-3.48Z"/><path d="M448.757 125.369h7.679v3.48h-7.679v-3.48Z"/><path d="M455.395 125.369h4.362v3.48h-4.362v-3.48Z"/><path d="M458.714 125.369h7.679v3.48h-7.679v-3.48Z"/><path d="M465.352 125.369h7.68v3.48h-7.68v-3.48Z"/><path d="M471.991 125.369h7.679v3.48h-7.679v-3.48Z"/><path d="M478.629 125.369h4.362v3.48h-4.362v-3.48Z"/><path d="M481.948 125.369h7.679v3.48h-7.679v-3.48Z"/><path d="M488.586 125.369h7.68v3.48h-7.68v-3.48Z"/></g><path d="M445.438 104.746h4.361v3.48h-4.361v-3.48Z" fill="gray"/><path d="M448.757 104.746h7.679v3.48h-7.679v-3.48Z" fill="gray"/><path d="M455.395 104.746h4.362v3.48h-4.362v-3.48Z" fill="gray"/><path d="M458.714 104.746h7.679v3.48h-7.679v-3.48Z" fill="gray"/><path d="M465.352 104.746h4.362v3.48h-4.362v-3.48Z" fill="gray"/><g filter="url(#j)"><path fill-rule="evenodd" clip-rule="evenodd" d="m590.467 115.647 6.325 3.442 8.175-3.442 6.325 3.188 6.767-5.835 8.661 7.41 10.147-5.988v24.356h-46.4v-23.131Z" fill="url(#k)"/></g><path d="M662.486 92.8a5.156 5.156 0 0 1 5.156-5.156h201.067a5.155 5.155 0 0 1 5.155 5.156v51.556a5.155 5.155 0 0 1-5.155 5.155H667.642a5.156 5.156 0 0 1-5.156-5.155V92.8Z" fill="#fff"/><path fill-rule="evenodd" clip-rule="evenodd" d="M868.709 88.289H667.642a4.51 4.51 0 0 0-4.511 4.511v51.556a4.51 4.51 0 0 0 4.511 4.511h201.067a4.511 4.511 0 0 0 4.511-4.511V92.8a4.511 4.511 0 0 0-4.511-4.511Zm-201.067-.645a5.156 5.156 0 0 0-5.156 5.156v51.556a5.156 5.156 0 0 0 5.156 5.155h201.067a5.155 5.155 0 0 0 5.155-5.155V92.8a5.155 5.155 0 0 0-5.155-5.156H667.642Z" fill="#D9D9D9"/><g opacity=".8" fill="#060606"><path d="M672.275 125.369h7.68v3.48h-7.68v-3.48Z"/><path d="M678.914 125.369h7.679v3.48h-7.679v-3.48Z"/></g><path d="M672.275 104.746h4.362v3.48h-4.362v-3.48Z" fill="gray"/><path d="M675.595 104.746h7.679v3.48h-7.679v-3.48Z" fill="gray"/><path d="M682.233 104.746h4.361v3.48h-4.361v-3.48Z" fill="gray"/><path d="M685.552 104.746h7.679v3.48h-7.679v-3.48Z" fill="gray"/><path d="M692.19 104.746h4.362v3.48h-4.362v-3.48Z" fill="gray"/><g filter="url(#l)"><path fill-rule="evenodd" clip-rule="evenodd" d="m817.467 115.647 6.325 3.442 8.175-3.442 6.325 3.188 6.767-5.835 8.661 7.41 10.147-5.988v24.356h-46.4v-23.131Z" fill="url(#m)"/></g><g filter="url(#n)"><path d="M208.799 201.068h665.066v36.089H208.799v-36.089Z" fill="#fff"/></g><g opacity=".4" fill="gray"><path d="M218.588 218.172h7.679v3.48h-7.679v-3.48Z"/><path d="M225.226 218.172h7.679v3.48h-7.679v-3.48Z"/><path d="M231.864 218.172h4.362v3.48h-4.362v-3.48Z"/><path d="M235.184 218.172h7.679v3.48h-7.679v-3.48Z"/><path d="M241.822 218.172h7.679v3.48h-7.679v-3.48Z"/><path d="M248.46 218.172h4.362v3.48h-4.362v-3.48Z"/><path d="M251.779 218.172h7.679v3.48h-7.679v-3.48Z"/><path d="M258.418 218.172h4.361v3.48h-4.361v-3.48Z"/><path d="M261.737 218.172h7.679v3.48h-7.679v-3.48Z"/><path d="M268.375 218.172h4.362v3.48h-4.362v-3.48Z"/><path d="M271.694 218.172h4.362v3.48h-4.362v-3.48Z"/><path d="M275.013 218.172h4.362v3.48h-4.362v-3.48Z"/><path d="M278.332 218.172h4.362v3.48h-4.362v-3.48Z"/><path d="M281.652 218.172h4.361v3.48h-4.361v-3.48Z"/></g><path fill-rule="evenodd" clip-rule="evenodd" d="M856.767 215.549a.483.483 0 0 1 .684 0l3.222 3.222a.482.482 0 0 1 0 .683l-3.222 3.223a.483.483 0 1 1-.684-.684l2.881-2.88-2.881-2.881a.482.482 0 0 1 0-.683Z" fill="#C7C7C7"/><g filter="url(#o)"><path d="M208.799 164.98h665.066v36.089H208.799V164.98Z" fill="#fff"/></g><g opacity=".4" fill="#060606"><path d="M218.588 182.084h7.679v3.48h-7.679v-3.48Z"/><path d="M225.226 182.084h7.679v3.48h-7.679v-3.48Z"/><path d="M231.864 182.084h7.68v3.48h-7.68v-3.48Z"/><path d="M238.503 182.084h4.361v3.48h-4.361v-3.48Z"/><path d="M241.822 182.084h7.679v3.48h-7.679v-3.48Z"/><path d="M248.46 182.084h7.679v3.48h-7.679v-3.48Z"/><path d="M255.098 182.084h4.362v3.48h-4.362v-3.48Z"/><path d="M258.418 182.084h7.679v3.48h-7.679v-3.48Z"/><path d="M265.056 182.084h7.679v3.48h-7.679v-3.48Z"/><path d="M271.694 182.084h4.362v3.48h-4.362v-3.48Z"/><path d="M275.013 182.084h7.679v3.48h-7.679v-3.48Z"/><path d="M281.652 182.084h7.679v3.48h-7.679v-3.48Z"/><path d="M288.29 182.084h4.361v3.48h-4.361v-3.48Z"/><path d="M291.609 182.084h7.679v3.48h-7.679v-3.48Z"/></g><path fill-rule="evenodd" clip-rule="evenodd" d="M856.767 179.461a.483.483 0 0 1 .684 0l3.222 3.222a.482.482 0 0 1 0 .683l-3.222 3.223a.483.483 0 1 1-.684-.684l2.881-2.88-2.881-2.881a.482.482 0 0 1 0-.683Z" fill="#C7C7C7"/></g><rect x=".5" y=".5" width="927" height="579" rx="7.5" stroke="#000"/></g><defs><filter id="a" x="0" y="0" width="936" height="588" filterUnits="userSpaceOnUse" color-interpolation-filters="sRGB"><feFlood flood-opacity="0" result="BackgroundImageFix"/><feColorMatrix in="SourceAlpha" values="0 0 0 0 0 0 0 0 0 0 0 0 0 0 0 0 0 0 127 0" result="hardAlpha"/><feOffset dx="8" dy="8"/><feColorMatrix values="0 0 0 0 0 0 0 0 0 0 0 0 0 0 0 0 0 0 1 0"/><feBlend in2="BackgroundImageFix" result="effect1_dropShadow_3248_4329"/><feBlend in="SourceGraphic" in2="effect1_dropShadow_3248_4329" result="shape"/></filter><filter id="f" x="154.666" y="0" width="773.333" height="41.244" filterUnits="userSpaceOnUse" color-interpolation-filters="sRGB"><feFlood flood-opacity="0" result="BackgroundImageFix"/><feBlend in="SourceGraphic" in2="BackgroundImageFix" result="shape"/><feColorMatrix in="SourceAlpha" values="0 0 0 0 0 0 0 0 0 0 0 0 0 0 0 0 0 0 127 0" result="hardAlpha"/><feOffset dy="-.644"/><feComposite in2="hardAlpha" operator="arithmetic" k2="-1" k3="1"/><feColorMatrix values="0 0 0 0 0.913725 0 0 0 0 0.913725 0 0 0 0 0.913725 0 0 0 1 0"/><feBlend in2="shape" result="effect1_innerShadow_3248_4329"/></filter><filter id="h" x="363.467" y="113" width="46.4" height="25.778" filterUnits="userSpaceOnUse" color-interpolation-filters="sRGB"><feFlood flood-opacity="0" result="BackgroundImageFix"/><feBlend in="SourceGraphic" in2="BackgroundImageFix" result="shape"/><feColorMatrix in="SourceAlpha" values="0 0 0 0 0 0 0 0 0 0 0 0 0 0 0 0 0 0 127 0" result="hardAlpha"/><feOffset dy="1.289"/><feComposite in2="hardAlpha" operator="arithmetic" k2="-1" k3="1"/><feColorMatrix values="0 0 0 0 0.537255 0 0 0 0 0.47451 0 0 0 0 0.909804 0 0 0 1 0"/><feBlend in2="shape" result="effect1_innerShadow_3248_4329"/></filter><filter id="j" x="590.467" y="113" width="46.4" height="25.778" filterUnits="userSpaceOnUse" color-interpolation-filters="sRGB"><feFlood flood-opacity="0" result="BackgroundImageFix"/><feBlend in="SourceGraphic" in2="BackgroundImageFix" result="shape"/><feColorMatrix in="SourceAlpha" values="0 0 0 0 0 0 0 0 0 0 0 0 0 0 0 0 0 0 127 0" result="hardAlpha"/><feOffset dy="1.289"/><feComposite in2="hardAlpha" operator="arithmetic" k2="-1" k3="1"/><feColorMatrix values="0 0 0 0 0.537255 0 0 0 0 0.47451 0 0 0 0 0.909804 0 0 0 1 0"/><feBlend in2="shape" result="effect1_innerShadow_3248_4329"/></filter><filter id="l" x="817.467" y="113" width="46.4" height="25.778" filterUnits="userSpaceOnUse" color-interpolation-filters="sRGB"><feFlood flood-opacity="0" result="BackgroundImageFix"/><feBlend in="SourceGraphic" in2="BackgroundImageFix" result="shape"/><feColorMatrix in="SourceAlpha" values="0 0 0 0 0 0 0 0 0 0 0 0 0 0 0 0 0 0 127 0" result="hardAlpha"/><feOffset dy="1.289"/><feComposite in2="hardAlpha" operator="arithmetic" k2="-1" k3="1"/><feColorMatrix values="0 0 0 0 0.537255 0 0 0 0 0.47451 0 0 0 0 0.909804 0 0 0 1 0"/><feBlend in2="shape" result="effect1_innerShadow_3248_4329"/></filter><filter id="n" x="208.799" y="201.068" width="665.067" height="36.089" filterUnits="userSpaceOnUse" color-interpolation-filters="sRGB"><feFlood flood-opacity="0" result="BackgroundImageFix"/><feBlend in="SourceGraphic" in2="BackgroundImageFix" result="shape"/><feColorMatrix in="SourceAlpha" values="0 0 0 0 0 0 0 0 0 0 0 0 0 0 0 0 0 0 127 0" result="hardAlpha"/><feOffset dy="-.644"/><feComposite in2="hardAlpha" operator="arithmetic" k2="-1" k3="1"/><feColorMatrix values="0 0 0 0 0.85098 0 0 0 0 0.85098 0 0 0 0 0.85098 0 0 0 1 0"/><feBlend in2="shape" result="effect1_innerShadow_3248_4329"/></filter><filter id="o" x="208.799" y="164.98" width="665.067" height="36.089" filterUnits="userSpaceOnUse" color-interpolation-filters="sRGB"><feFlood flood-opacity="0" result="BackgroundImageFix"/><feBlend in="SourceGraphic" in2="BackgroundImageFix" result="shape"/><feColorMatrix in="SourceAlpha" values="0 0 0 0 0 0 0 0 0 0 0 0 0 0 0 0 0 0 127 0" result="hardAlpha"/><feOffset dy="-.644"/><feComposite in2="hardAlpha" operator="arithmetic" k2="-1" k3="1"/><feColorMatrix values="0 0 0 0 0.85098 0 0 0 0 0.85098 0 0 0 0 0.85098 0 0 0 1 0"/><feBlend in2="shape" result="effect1_innerShadow_3248_4329"/></filter><clipPath id="b"><rect width="928" height="580" rx="8" fill="#fff"/></clipPath><clipPath id="c"><path fill="#fff" d="M0 0h154.667v580H0z"/></clipPath><clipPath id="d"><path fill="#fff" transform="translate(14.18 19.334)" d="M0 0h65.403v18.689H0z"/></clipPath><clipPath id="e"><rect x="127.156" y="135.84" width="9.545" height="2.32" rx="1.16" fill="#fff"/></clipPath><clipPath id="g"><path fill="#fff" transform="translate(262.56 97.953)" d="M0 0h10.311v10.311H0z"/></clipPath><linearGradient id="i" x1="487.731" y1="138.778" x2="487.731" y2="52.1" gradientUnits="userSpaceOnUse"><stop stop-color="#8979E8" stop-opacity="0"/><stop offset="1" stop-color="#8979E8"/></linearGradient><linearGradient id="k" x1="714.731" y1="138.778" x2="714.731" y2="52.1" gradientUnits="userSpaceOnUse"><stop stop-color="#8979E8" stop-opacity="0"/><stop offset="1" stop-color="#8979E8"/></linearGradient><linearGradient id="m" x1="941.731" y1="138.778" x2="941.731" y2="52.1" gradientUnits="userSpaceOnUse"><stop stop-color="#8979E8" stop-opacity="0"/><stop offset="1" stop-color="#8979E8"/></linearGradient></defs></svg>