<svg width="1312" height="772" fill="none" xmlns="http://www.w3.org/2000/svg"><path fill-rule="evenodd" clip-rule="evenodd" d="M1.063 78.002V154h80.673V78.002H1.063ZM.002 232v-77H0V0h1.062v77.002h80.673V0h1.062v77.002h80.673V0h1.061v77.002h81.734V0h1.061v77.002H328V0h1.061v77.002h80.675V0h1.062v77.002h80.673V0h1.061v77.002h80.673V0h1.061v77.002h80.673V0h1.062v77.002h81.735V0h1.062v77.002h80.673V0h1.061v77.002h80.673V0h1.061v77.002h80.673V0h1.062v77.002h80.669V0h1.07v77.002h80.67V0h1.06v77.002h81.74V0h1.06v77.002h79.61V0h1.06v617h1.06v1h-1.06v154h-1.06v-76h-79.61v76h-1.06v-76h-81.74v76h-1.06v-76h-80.67v76h-1.07v-76h-80.669v76h-1.062v-76h-80.673v76h-1.061v-76h-80.673v76h-1.061v-76h-80.673v76h-1.062v-76h-81.735v76h-1.062v-76h-80.673v76h-1.061v-76h-80.673v76h-1.061v-76h-80.673v76h-1.062v-76h-80.675v76H328v-76h-80.673v76h-1.061v-76h-81.734v76h-1.061v-76H82.798v76h-1.062v-76H1.063v76H.002v-76H0v-78H0v-1h.002v-75.998H0V232Zm1.061 463h80.673v-77H1.063v77Zm81.735 0h80.673v-77H82.798v77Zm81.734 0h81.734v-77h-81.734v77Zm82.795 0H328v-77h-80.673v77Zm81.734 0h80.675v-77h-80.675v77Zm81.737 0h80.673v-77h-80.673v77Zm81.734 0h80.673v-77h-80.673v77Zm81.734 0h80.673v-77h-80.673v77Zm81.735 0h81.735v-77h-81.735v77Zm82.797 0h80.673v-77h-80.673v77Zm81.734 0h80.673v-77h-80.673v77Zm81.734 0h80.673v-77h-80.673v77Zm81.735 0h80.669v-77h-80.669v77Zm81.739 0h80.67v-77h-80.67v77Zm81.73 0h81.74v-77h-81.74v77Zm82.8 0h79.61v-77h-79.61v77Zm79.61-153.998V617h-79.61v-75.998h79.61Zm-80.67 0V617h-81.74v-75.998h81.74Zm-82.8 0V617h-80.67v-75.998h80.67Zm-81.74 0V617h-80.669v-75.998h80.669Zm-81.731 0V617h-80.673v-75.998h80.673Zm-81.734 0V617h-80.673v-75.998h80.673Zm-81.734 0V617h-80.673v-75.998h80.673Zm-81.735 0V617h-81.735v-75.998h81.735Zm-82.797 0V617h-80.673v-75.998h80.673Zm-81.734 0V617h-80.673v-75.998h80.673Zm-81.734 0V617h-80.673v-75.998h80.673Zm-81.735 0V617h-80.675v-75.998h80.675Zm-81.736 0V617h-80.673v-75.998H328Zm-81.734 0V617h-81.734v-75.998h81.734Zm-82.795 0V617H82.798v-75.998h80.673Zm-81.735 0V617H1.063v-75.998h80.673Zm-80.673-1h80.673V464H1.063v76.002Zm81.735 0h80.673V464H82.798v76.002Zm81.734 0h81.734V464h-81.734v76.002Zm82.795 0H328V464h-80.673v76.002Zm81.734 0h80.675V464h-80.675v76.002Zm81.737 0h80.673V464h-80.673v76.002Zm81.734 0h80.673V464h-80.673v76.002Zm81.734 0h80.673V464h-80.673v76.002Zm81.735 0h81.735V464h-81.735v76.002Zm82.797 0h80.673V464h-80.673v76.002Zm81.734 0h80.673V464h-80.673v76.002Zm81.734 0h80.673V464h-80.673v76.002Zm81.735 0h80.669V464h-80.669v76.002Zm81.739 0h80.67V464h-80.67v76.002Zm81.73 0h81.74V464h-81.74v76.002Zm82.8 0h79.61V464h-79.61v76.002Zm79.61-153V463h-79.61v-75.998h79.61Zm-80.67 0V463h-81.74v-75.998h81.74Zm-82.8 0V463h-80.67v-75.998h80.67Zm-81.74 0V463h-80.669v-75.998h80.669Zm-81.731 0V463h-80.673v-75.998h80.673Zm-81.734 0V463h-80.673v-75.998h80.673Zm-81.734 0V463h-80.673v-75.998h80.673Zm-81.735 0V463h-81.735v-75.998h81.735Zm-82.797 0V463h-80.673v-75.998h80.673Zm-81.734 0V463h-80.673v-75.998h80.673Zm-81.734 0V463h-80.673v-75.998h80.673Zm-81.735 0V463h-80.675v-75.998h80.675Zm-81.736 0V463h-80.673v-75.998H328Zm-81.734 0V463h-81.734v-75.998h81.734Zm-82.795 0V463H82.798v-75.998h80.673Zm-81.735 0V463H1.063v-75.998h80.673Zm-80.673-1h80.673V310H1.063v76.002Zm81.735 0h80.673V310H82.798v76.002Zm81.734 0h81.734V310h-81.734v76.002Zm82.795 0H328V310h-80.673v76.002Zm81.734 0h80.675V310h-80.675v76.002Zm81.737 0h80.673V310h-80.673v76.002Zm81.734 0h80.673V310h-80.673v76.002Zm81.734 0h80.673V310h-80.673v76.002Zm81.735 0h81.735V310h-81.735v76.002Zm82.797 0h80.673V310h-80.673v76.002Zm81.734 0h80.673V310h-80.673v76.002Zm81.734 0h80.673V310h-80.673v76.002Zm81.735 0h80.669V310h-80.669v76.002Zm81.739 0h80.67V310h-80.67v76.002Zm81.73 0h81.74V310h-81.74v76.002Zm82.8 0h79.61V310h-79.61v76.002ZM1309.88 233v76h-79.61v-76h79.61Zm-80.67 0v76h-81.74v-76h81.74Zm-82.8 0v76h-80.67v-76h80.67Zm-81.74 0v76h-80.669v-76h80.669Zm-81.731 0v76h-80.673v-76h80.673Zm-81.734 0v76h-80.673v-76h80.673Zm-81.734 0v76h-80.673v-76h80.673Zm-81.735 0v76h-81.735v-76h81.735Zm-82.797 0v76h-80.673v-76h80.673Zm-81.734 0v76h-80.673v-76h80.673Zm-81.734 0v76h-80.673v-76h80.673Zm-81.735 0v76h-80.675v-76h80.675ZM328 233v76h-80.673v-76H328Zm-81.734 0v76h-81.734v-76h81.734Zm-82.795 0v76H82.798v-76h80.673Zm-81.735 0v76H1.063v-76h80.673Zm-80.673-1h80.673v-77H1.063v77Zm81.735 0h80.673v-77H82.798v77Zm81.734 0h81.734v-77h-81.734v77Zm82.795 0H328v-77h-80.673v77Zm81.734 0h80.675v-77h-80.675v77Zm81.737 0h80.673v-77h-80.673v77Zm81.734 0h80.673v-77h-80.673v77Zm81.734 0h80.673v-77h-80.673v77Zm81.735 0h81.735v-77h-81.735v77Zm82.797 0h80.673v-77h-80.673v77Zm81.734 0h80.673v-77h-80.673v77Zm81.734 0h80.673v-77h-80.673v77Zm81.735 0h80.669v-77h-80.669v77Zm81.739 0h80.67v-77h-80.67v77Zm81.73 0h81.74v-77h-81.74v77Zm82.8 0h79.61v-77h-79.61v77Zm79.61-153.998V154h-79.61V78.002h79.61Zm-80.67 0V154h-81.74V78.002h81.74Zm-82.8 0V154h-80.67V78.002h80.67Zm-81.74 0V154h-80.669V78.002h80.669Zm-81.731 0V154h-80.673V78.002h80.673Zm-81.734 0V154h-80.673V78.002h80.673Zm-81.734 0V154h-80.673V78.002h80.673Zm-81.735 0V154h-81.735V78.002h81.735Zm-82.797 0V154h-80.673V78.002h80.673Zm-81.734 0V154h-80.673V78.002h80.673Zm-81.734 0V154h-80.673V78.002h80.673Zm-81.735 0V154h-80.675V78.002h80.675Zm-81.736 0V154h-80.673V78.002H328Zm-81.734 0V154h-81.734V78.002h81.734Zm-82.795 0V154H82.798V78.002h80.673Z" fill="url(#a)"/><defs><linearGradient id="a" x1="582.5" y1="771.5" x2="582.5" y2="125.5" gradientUnits="userSpaceOnUse"><stop stop-color="#D1D0DA"/><stop offset="1" stop-color="#D0CFDA" stop-opacity="0"/></linearGradient></defs></svg>